<svg xmlns="http://www.w3.org/2000/svg" width="1090" height="264" viewBox="0 0 1090 264">
  <path id="Chart_Grid" data-name="Chart Grid" d="M18,261V-3h1V260H242V200H19.3v-1H242V139H19.3v-1H242V78H19.3V77H242V17H19.3V16H242V-3h1V16H454V-3h1V16H668V-3h1V16H879V-3h1V16h226.7v1H880V77h226.7v1H880v60h226.7v1H880v60h226.7v1H880v60h227V-3h1V261Zm861-1V200H669v60Zm-211,0V200H455v60Zm-214,0V200H243v60Zm425-61V139H669v60Zm-211,0V139H455v60Zm-214,0V139H243v60Zm425-61V78H669v60Zm-211,0V78H455v60Zm-214,0V78H243v60ZM879,77V17H669V77ZM668,77V17H455V77ZM454,77V17H243V77Z" transform="translate(-18 3)" fill="#eaf0f4"/>
</svg>
