<svg xmlns="http://www.w3.org/2000/svg" xmlns:xlink="http://www.w3.org/1999/xlink" width="1099.263" height="227.309" viewBox="0 0 1099.263 227.309">
  <defs>
    <linearGradient id="linear-gradient" x1="0.5" x2="0.5" y2="1" gradientUnits="objectBoundingBox">
      <stop offset="0" stop-color="#a7a7ff"/>
      <stop offset="1" stop-color="#fff" stop-opacity="0"/>
    </linearGradient>
  </defs>
  <g id="Products_Sold_Graph" data-name="Products Sold Graph" transform="translate(-325 -330)">
    <path id="Filled.Graph" d="M330,490.153V401.268s125.688,58.3,226.113,61.963c108.591-3.549,127.395-28.5,211.979-61.963,72.281-27.892,144.365-35.547,213.552-33.576s129.155,32.1,210.881,35.189c144.174-12.44,217.733-75.335,227.473-101.6V523.21l-1090,.1Z" transform="translate(0.002 34)" opacity="0.7" fill="url(#linear-gradient)"/>
    <path id="Line.Graph" d="M313,346.5s124.876,59.691,223.613,60.976,136.661-30.8,212.287-60.9,147.52-35.23,213.709-34.218,130.535,32.548,211.862,34.221S1387.367,292.07,1402,245.24" transform="translate(18.002 89)" fill="none" stroke="#a3a0fb" stroke-width="2"/>
    <g id="Jun.Ellipse" transform="translate(1414.274 330)" fill="#fff" stroke="#a4a1fb" stroke-width="2">
      <circle cx="4.995" cy="4.995" r="4.995" stroke="none"/>
      <circle cx="4.995" cy="4.995" r="3.995" fill="none"/>
    </g>
    <g id="May.Ellipse" transform="translate(1186.217 431)" fill="#fff" stroke="#a4a1fb" stroke-width="2">
      <circle cx="4.995" cy="4.995" r="4.995" stroke="none"/>
      <circle cx="4.995" cy="4.995" r="3.995" fill="none"/>
    </g>
    <g id="Apr.Ellipse" transform="translate(975.164 397)" fill="#fff" stroke="#a4a1fb" stroke-width="2">
      <circle cx="4.995" cy="4.995" r="4.995" stroke="none"/>
      <circle cx="4.995" cy="4.995" r="3.995" fill="none"/>
    </g>
    <g id="Mar.Ellipse" transform="translate(762.11 431)" fill="#fff" stroke="#a4a1fb" stroke-width="2">
      <circle cx="4.995" cy="4.995" r="4.995" stroke="none"/>
      <circle cx="4.995" cy="4.995" r="3.995" fill="none"/>
    </g>
    <g id="Feb.Ellipse" transform="translate(550.057 492)" fill="#fff" stroke="#a4a1fb" stroke-width="2">
      <circle cx="4.995" cy="4.995" r="4.995" stroke="none"/>
      <circle cx="4.995" cy="4.995" r="3.995" fill="none"/>
    </g>
    <g id="Jan.Ellipse" transform="translate(325 430)" fill="#fff" stroke="#a4a1fb" stroke-width="2">
      <circle cx="4.995" cy="4.995" r="4.995" stroke="none"/>
      <circle cx="4.995" cy="4.995" r="3.995" fill="none"/>
    </g>
  </g>
</svg>
